<?xml version="1.0" encoding="UTF-8"?>
<svg width="790px" height="230px" viewBox="0 0 790 230" version="1.1" xmlns="http://www.w3.org/2000/svg" xmlns:xlink="http://www.w3.org/1999/xlink">
    <!-- Generator: Sketch 61.2 (89653) - https://sketch.com -->
    <title>Logo_SCOR_blanc</title>
    <desc>Created with Sketch.</desc>
    <defs>
        <filter x="-4.6%" y="-17.3%" width="109.2%" height="134.7%" filterUnits="objectBoundingBox" id="filter-1">
            <feOffset dx="4" dy="4" in="SourceAlpha" result="shadowOffsetOuter1"></feOffset>
            <feGaussianBlur stdDeviation="7" in="shadowOffsetOuter1" result="shadowBlurOuter1"></feGaussianBlur>
            <feColorMatrix values="0 0 0 0 0   0 0 0 0 0   0 0 0 0 0  0 0 0 0.245765953 0" type="matrix" in="shadowBlurOuter1" result="shadowMatrixOuter1"></feColorMatrix>
            <feMerge>
                <feMergeNode in="shadowMatrixOuter1"></feMergeNode>
                <feMergeNode in="SourceGraphic"></feMergeNode>
            </feMerge>
        </filter>
    </defs>
    <g id="Page-1" stroke="none" stroke-width="1" fill="none" fill-rule="evenodd">
        <g id="Landing-page-Copy" transform="translate(-569.000000, -146.000000)" fill="#FFFFFE">
            <g id="Logo_SCOR_blanc" filter="url(#filter-1)" transform="translate(579.000000, 156.000000)">
                <path d="M114.831309,0.98564453 C137.683805,3.39697396 167.941472,12.7433855 170.925732,13.6796904 C165.951774,22.4305845 161.844177,34.6134492 151.412779,34.6134492 C143.702914,34.6134492 122.228433,26.2951372 98.2813446,26.2951372 C88.4323105,26.2951372 69.338453,27.8051584 69.338453,38.4992295 C69.295911,56.9447809 167.344735,51.2219612 163.38661,92.5415798 C161.041629,117.370872 129.035718,136.560533 85.938433,136.560533 C49.7542133,136.560533 14.2098473,124.122365 1,117.201052 C4.77358508,111.234403 6.16597128,109.158697 11.7159698,100.332647 C13.3572839,97.6711768 16.4697442,96.1106686 20.4065983,96.5220232 C25.8853104,97.0750856 56.2349605,109.499485 80.1607776,110.1518 C94.9768706,110.572334 117.083732,110.232121 118.633064,96.9666533 C121.006214,76.4958835 27.9744646,81.5807307 27.9744646,41.2651155 C27.9744646,20.4730646 54.7994574,-5.36826302 114.831309,0.98564453 Z M348.938456,21.1821779 C338.563397,33.010486 334.513289,40.0953081 322.674557,40.0953081 C310.530558,40.0953081 300.844793,29.4861471 270.473872,29.4861471 C239.697653,29.4861471 220.589998,47.4279756 220.589998,69.695051 C220.589998,100.281012 255.593966,107.102498 270.516414,107.102498 C316.996933,107.102498 361.260097,52.4061115 395.70987,28.9548858 C418.903851,12.5374214 443.050426,0 481.834879,0 C538.029332,0 571.882369,31.9898448 571.882369,69.695051 C571.882369,106.35552 536.132192,137 482.111976,137 C438.125909,137 411.428542,124.661084 383.772257,97.8174745 L406.724209,77.1837693 C418.506027,89.9696098 445.565575,107.102498 479.68881,107.102498 C505.504869,107.102498 531.697482,92.2811126 531.697482,69.695051 C531.697482,46.6758336 512.369069,29.4861471 481.85615,29.4861471 C404.57814,29.4861471 367.641388,136.560533 270.715326,136.560533 C234.723695,136.560533 185.52854,122.675452 180.241842,75.7299723 C180.241842,75.1837944 180.184928,65.5040537 180.241842,64.3130188 C183.077205,26.9899076 225.123589,0 271.945018,0 C300.226785,0 329.581874,11.2827039 348.938456,21.1821779 Z M713.07102,133.355181 C706.241314,131.539942 700.457909,127.029385 694.887215,120.36395 C679.198437,101.514502 658.347138,76.3541756 652.799439,69.3904076 C670.52908,66.6457491 722.229035,64.9859879 722.229035,41.9530013 C722.229035,28.8625175 702.332054,26.1677722 687.603345,26.1677722 C646.544624,26.1677722 641.002674,54.0934111 635.368741,70.3267126 C635.368741,70.3267126 618.254233,124.760337 615.287795,134.249031 L575.764033,134.249031 L596.126675,69.6600543 C608.435094,27.2383268 631.436486,0 690.610025,0 C726.667194,0 762,11.2827039 762,37.7057799 C762,68.5390127 722.982142,78.9209821 700.699364,81.6862945 L753.273153,134.249031 L720.170925,134.249031 C717.670148,134.249031 715.307346,133.950698 713.07102,133.355181 L713.07102,133.355181 Z" id="Fill-1"></path>
                <path d="M760,201.131935 L753.710979,201.131935 L735.505011,182.174378 L735.505011,201.131935 L730.952082,201.131935 L730.952082,146.868065 L735.505011,146.868065 L735.505011,179.353741 L751.980636,164.23225 L757.827011,164.23225 L739.839492,180.583308 L760,201.131935 Z M712.964563,167.271055 C708.267917,167.271055 705.014183,168.717063 705.014183,173.419467 C705.014183,180.294337 723.151167,179.426272 723.151167,191.508383 C723.151167,199.322698 715.850384,202 710.291441,202 C706.750274,202 703.209107,201.565967 699.955372,200.263294 L700.39227,195.776754 C703.134375,197.151959 706.457093,198.09313 709.99826,198.09313 C714.338489,198.09313 718.167089,195.704224 718.167089,191.508383 C718.167089,182.754047 700.461253,184.128676 700.461253,173.419467 C700.461253,166.112291 706.388109,163.364185 712.458682,163.364185 C714.407473,163.364185 718.310805,163.798218 721.558791,165.027785 L721.127643,169.007761 C718.741954,167.921528 715.493968,167.271055 712.964563,167.271055 Z M687.532544,154.391682 L692.085473,154.391682 L692.085473,148.314073 L687.532544,148.314073 L687.532544,154.391682 Z M687.532544,201.131935 L692.085473,201.131935 L692.085473,164.23225 L687.532544,164.23225 L687.532544,201.131935 Z M658.484626,154.970776 L653.356832,154.970776 L653.356832,172.985434 L658.628342,172.985434 C664.486215,172.985434 671.200635,170.743892 671.200635,163.725687 C671.200635,155.477915 665.348512,154.970776 658.484626,154.970776 Z M664.992096,175.373765 L664.992096,175.519402 C669.033395,176.024239 669.901441,178.194978 671.493816,181.597011 L680.088045,201.131935 L674.598086,201.131935 L667.303052,184.056145 C664.411482,177.544504 662.244242,177.326337 657.472864,177.326337 L653.356832,177.326337 L653.356832,201.131935 L648.372754,201.131935 L648.372754,150.629874 L661.376196,150.629874 C670.338338,150.629874 676.190462,154.464213 676.190462,163.725687 C676.190462,170.237328 671.200635,174.578231 664.992096,175.373765 Z M621.135661,150.702404 C620.192882,150.195841 618.824704,149.90687 617.519761,149.90687 C611.305473,149.90687 611.95507,156.634952 611.95507,161.048385 L611.95507,164.23225 L620.267615,164.23225 L620.267615,168.139696 L611.95507,168.139696 L611.95507,201.131935 L607.407889,201.131935 L607.407889,168.139696 L599.96339,168.139696 L599.96339,164.23225 L607.407889,164.23225 L607.407889,161.554948 C607.407889,153.813739 607.695322,146 617.157596,146 C618.606255,146 620.555047,146.215865 621.423093,146.723004 L621.135661,150.702404 Z M578.865852,167.271055 C570.918921,167.271055 566.656299,174.144198 566.656299,182.680941 C566.656299,191.21826 570.918921,198.09313 578.865852,198.09313 C586.816232,198.09313 591.07598,191.21826 591.07598,182.680941 C591.07598,174.144198 586.816232,167.271055 578.865852,167.271055 Z M578.865852,202 C566.944881,202 561.669922,192.738526 561.669922,182.680941 C561.669922,172.623932 566.944881,163.364185 578.865852,163.364185 C590.788548,163.364185 596.065807,172.623932 596.065807,182.680941 C596.065807,192.738526 590.788548,202 578.865852,202 Z M522.077834,167.271055 C515.358814,167.271055 511.239908,173.999137 511.239908,180.076745 L531.471699,180.076745 C531.471699,173.637635 528.871011,167.271055 522.077834,167.271055 Z M511.239908,183.983615 C511.239908,191.797354 515.429522,198.09313 523.378178,198.09313 C526.703196,198.09313 531.542408,196.717926 533.710223,195.342722 L533.710223,199.972595 C530.53237,201.275269 526.412889,202 523.017163,202 C510.805885,202 506.255255,193.751652 506.255255,182.680941 C506.255255,171.394365 512.467819,163.364185 521.789252,163.364185 C532.193729,163.364185 536.456352,171.755867 536.456352,181.667815 L536.456352,183.983615 L511.239908,183.983615 Z M493.396105,167.271055 C484.50812,167.271055 479.523467,173.710165 479.523467,182.680941 C479.523467,191.07435 484.580553,198.09313 492.890224,198.09313 C495.779494,198.09313 498.45319,197.44093 501.199319,196.427228 L501.633342,200.697326 C498.526198,201.781832 495.636353,202 492.168193,202 C480.31793,202 474.53709,192.954391 474.53709,182.680941 C474.53709,171.321834 481.834424,163.364185 492.744783,163.364185 C497.152846,163.364185 500.332423,164.37616 501.633342,164.810193 L501.272327,169.151095 C498.814205,168.066589 495.851927,167.271055 493.396105,167.271055 Z M461.67794,201.131935 L461.67794,178.701541 C461.67794,171.755867 459.222117,167.271055 452.934821,167.271055 C444.625725,167.271055 442.024462,174.578231 442.024462,180.72837 L442.024462,201.131935 L437.473257,201.131935 L437.473257,172.914631 C437.473257,170.092267 437.473257,167.198524 437.182951,164.23225 L441.591014,164.23225 L441.591014,170.815271 L441.73588,170.815271 C443.252373,167.487495 445.998502,163.364185 453.658576,163.364185 C462.762709,163.364185 466.230869,169.441794 466.230869,177.544504 L466.230869,201.131935 L461.67794,201.131935 Z M414.786793,167.271055 C408.067774,167.271055 403.948867,173.999137 403.948867,180.076745 L424.178934,180.076745 C424.178934,173.637635 421.578246,167.271055 414.786793,167.271055 Z M403.948867,183.983615 C403.948867,191.797354 408.139057,198.09313 416.087137,198.09313 C419.410431,198.09313 424.251942,196.717926 426.419182,195.342722 L426.419182,199.972595 C423.24133,201.275269 419.121849,202 415.726122,202 C403.514844,202 398.964215,193.751652 398.964215,182.680941 C398.964215,171.394365 405.176778,163.364185 414.498211,163.364185 C424.902689,163.364185 429.165886,171.755867 429.165886,181.667815 L429.165886,183.983615 L403.948867,183.983615 Z M386.030907,154.391682 L390.583836,154.391682 L390.583836,148.314073 L386.030907,148.314073 L386.030907,154.391682 Z M386.030907,201.131935 L390.583836,201.131935 L390.583836,164.23225 L386.030907,164.23225 L386.030907,201.131935 Z M370.427351,167.271055 C361.539367,167.271055 356.554714,173.710165 356.554714,182.680941 C356.554714,191.07435 361.6118,198.09313 369.92147,198.09313 C372.811316,198.09313 375.484437,197.44093 378.231141,196.427228 L378.664589,200.697326 C375.557445,201.781832 372.6676,202 369.19944,202 C357.349177,202 351.568337,192.954391 351.568337,182.680941 C351.568337,171.321834 358.867395,163.364185 369.776605,163.364185 C374.184093,163.364185 377.36367,164.37616 378.664589,164.810193 L378.303574,169.151095 C375.845452,168.066589 372.883749,167.271055 370.427351,167.271055 Z M332.928921,154.102711 C327.726395,154.102711 322.019712,156.27345 322.019712,162.785091 C322.019712,172.914631 345.139624,172.985434 345.139624,187.745423 C345.139624,197.947493 336.396505,202 328.593291,202 C323.681071,202 319.851897,200.986298 317.178201,199.829261 L317.684656,194.691097 C320.646935,196.572865 324.114519,197.659098 328.811164,197.659098 C335.025453,197.659098 340.154971,194.474656 340.154971,187.31139 C340.154971,177.399443 317.033335,176.1693 317.033335,162.930152 C317.033335,154.825715 324.114519,149.761808 333.001354,149.761808 C335.458901,149.761808 339.431217,150.12331 342.899376,151.425408 L342.104913,155.984478 C339.864665,154.753184 336.325797,154.102711 332.928921,154.102711 Z M263.35246,176.024239 C258.583957,177.906006 253.887311,182.101847 253.887311,187.674044 C253.887311,194.547187 259.523286,198.09313 265.592708,198.09313 C270.143913,198.09313 275.13029,195.776754 278.019561,192.231387 L263.35246,176.024239 Z M274.696842,160.975854 C274.696842,156.200343 271.806997,153.668678 267.54265,153.668678 C263.280027,153.668678 259.232979,156.127813 259.232979,161.048385 C259.232979,165.027785 262.196982,168.28303 264.941386,171.321834 C269.34945,169.223626 274.696842,166.907826 274.696842,160.975854 Z M292.471087,200.986298 L286.113082,200.986298 L280.76569,195.342722 C276.646783,199.972595 271.373549,202 265.447268,202 C256.922023,202 248.900934,197.659098 248.900934,187.890484 C248.900934,180.149276 254.103461,175.808374 260.82363,173.203602 C257.716486,169.658234 254.248326,165.82332 254.248326,160.759413 C254.248326,153.523041 261.184645,149.761808 267.832956,149.761808 C273.829371,149.761808 279.68092,153.089008 279.68092,160.180319 C279.68092,168.066589 273.612072,170.887802 267.54265,173.926606 L280.838697,188.75855 C284.01655,184.201782 285.173753,178.846602 285.173753,173.419467 L289.508808,173.419467 C289.508808,179.931108 287.629575,186.588386 283.873409,191.652293 L292.471087,200.986298 Z M220.001906,198.09313 C221.735698,198.09313 222.893476,197.731628 224.19382,197.224489 L224.482402,200.986298 C223.399357,201.42033 221.159109,202 218.918861,202 C210.827064,202 210.536757,196.427228 210.536757,189.699721 L210.536757,168.139696 L203.311857,168.139696 L203.311857,164.23225 L210.536757,164.23225 L210.536757,155.332278 L215.089686,153.741209 L215.089686,164.23225 L223.470065,164.23225 L223.470065,168.139696 L215.089686,168.139696 L215.089686,192.015522 C215.089686,195.342722 216.317598,198.09313 220.001906,198.09313 Z M197.605174,168.139696 C190.380848,168.139696 188.429182,176.242406 188.429182,182.899109 L188.429182,201.131935 L183.877977,201.131935 L183.877977,172.480598 C183.877977,168.428091 183.877977,166.907826 183.587671,164.23225 L188.1406,164.23225 L188.1406,171.321834 L188.285466,171.321834 C189.946825,167.198524 193.054544,163.364185 197.750615,163.364185 C198.83366,163.364185 200.134004,163.580626 200.928467,163.798218 L200.928467,168.573728 C199.990863,168.28303 198.761227,168.139696 197.605174,168.139696 Z M154.400061,155.404809 L143.418418,183.260611 L165.310419,183.260611 L154.400061,155.404809 Z M172.392179,201.131935 L166.971779,187.601513 L141.539185,187.601513 L136.11936,201.131935 L131.280148,201.131935 L151.943663,150.629874 L157.579638,150.629874 L177.59413,201.131935 L172.392179,201.131935 Z M93.6374267,167.271055 C86.9172573,167.271055 82.7995008,173.999137 82.7995008,180.076745 L103.030143,180.076745 C103.030143,173.637635 100.428879,167.271055 93.6374267,167.271055 Z M82.7995008,183.983615 C82.7995008,191.797354 86.9896903,198.09313 94.9383458,198.09313 C98.2610643,198.09313 103.102576,196.717926 105.270391,195.342722 L105.270391,199.972595 C102.090239,201.275269 97.973057,202 94.5773307,202 C82.3660527,202 77.8131236,193.751652 77.8131236,182.680941 C77.8131236,171.394365 84.027412,163.364185 93.3494195,163.364185 C103.753897,163.364185 108.01652,171.755867 108.01652,181.667815 L108.01652,183.983615 L82.7995008,183.983615 Z M64.953973,201.131935 L64.953973,179.135574 C64.953973,172.769569 63.7260618,167.271055 56.2114292,167.271055 C48.1196324,167.271055 45.3004954,174.939733 45.3004954,181.378843 L45.3004954,201.131935 L40.7492909,201.131935 L40.7492909,146.868065 L45.3004954,146.868065 L45.3004954,170.453769 L45.4459362,170.453769 C47.3976022,166.402989 51.5147839,163.364185 56.935184,163.364185 C66.833206,163.364185 69.5069022,169.94663 69.5069022,179.063043 L69.5069022,201.131935 L64.953973,201.131935 Z M19.8696267,154.970776 L19.8696267,201.131935 L14.8849741,201.131935 L14.8849741,154.970776 L0,154.970776 L0,150.629874 L34.7546008,150.629874 L34.7546008,154.970776 L19.8696267,154.970776 L19.8696267,154.970776 Z" id="Fill-3"></path>
            </g>
        </g>
    </g>
</svg>